<svg width="24" height="22" viewBox="0 0 24 22" fill="none" xmlns="http://www.w3.org/2000/svg">
<path fill-rule="evenodd" clip-rule="evenodd" d="M17.0079 5.15144C17.0079 7.99677 14.6998 10.3034 11.8526 10.3034C9.00522 10.3034 6.69715 7.99677 6.69715 5.15144C6.69715 2.30668 9.00522 0 11.8526 0C14.6998 0 17.0079 2.30668 17.0079 5.15144ZM5.15542 11.5915C2.30818 11.5915 0 13.8975 0 16.7428C0 19.5879 2.30818 21.8944 5.15542 21.8944C8.00278 21.8944 10.3111 19.5879 10.3111 16.7428C10.3111 13.8975 8.00278 11.5915 5.15542 11.5915ZM18.5496 11.591C15.7024 11.591 13.3942 13.8975 13.3942 16.7428C13.3942 19.5879 15.7024 21.8944 18.5496 21.8944C21.3969 21.8944 23.705 19.5879 23.705 16.7428C23.705 13.8975 21.3969 11.591 18.5496 11.591Z" fill="url(#paint0_radial_1_9)"/>
<defs>
<radialGradient id="paint0_radial_1_9" cx="0" cy="0" r="1" gradientTransform="matrix(-10.4729 6.79371 -5.88535 -10.6353 -13.9567 -3.4936)" gradientUnits="userSpaceOnUse">
<stop stop-color="#FFB900"/>
<stop offset="0.74709" stop-color="#FA5C86"/>
<stop offset="1" stop-color="#F95353"/>
</radialGradient>
</defs>
</svg>
